<?xml version="1.0" encoding="utf-8"?>
<!-- Generator: Adobe Illustrator 19.0.0, SVG Export Plug-In . SVG Version: 6.00 Build 0)  -->
<svg version="1.1" id="Layer_1" xmlns="http://www.w3.org/2000/svg" xmlns:xlink="http://www.w3.org/1999/xlink" x="0px" y="0px"
	 viewBox="0 0 581.3 582" style="enable-background:new 0 0 581.3 582;" xml:space="preserve">
<style type="text/css">
	.st0{fill:#616274;}
	.st1{fill:#393E4B;}
</style>
<rect id="XMLID_133_" x="-11.6" y="-9" class="st0" width="605.3" height="596"/>
<g id="XMLID_2_">
	<path id="XMLID_1_" class="st1" d="M550.4,577H30.9C16.6,577,5,565.4,5,551.1V30.9C5,16.6,16.6,5,30.9,5h519.5
		c14.3,0,25.9,11.6,25.9,25.9v520.2C576.3,565.4,564.7,577,550.4,577z"/>
	<g id="XMLID_109_">
		<g id="XMLID_171_">
			<path id="XMLID_172_" class="st0" d="M238.8,236.8h-23.3v-23.3v-23.3h23.3h23.3v23.3v23.3H238.8z M308.8,190.2h-23.3h-23.3v-23.3
				v-23.3h23.3h23.3v23.3V190.2z M285.5,330.1h-23.3v-23.3v-23.3h23.3h23.3v23.3v23.3H285.5z M285.5,423.5h-23.3v-23.3v-23.3h23.3
				h23.3v23.3v23.3H285.5z M308.8,283.5v-23.3v-23.3v-23.3v-23.3h23.3h23.3v23.3v23.3v23.3v23.3h-23.3H308.8z"/>
		</g>
	</g>
	<path id="XMLID_118_" class="st0" d="M550.4,582H30.9C13.9,582,0,568.1,0,551.1V30.9C0,13.9,13.9,0,30.9,0h519.5
		c17,0,30.9,13.9,30.9,30.9v520.2C581.3,568.1,567.5,582,550.4,582z M30.9,10C19.4,10,10,19.4,10,30.9v520.2
		c0,11.5,9.4,20.9,20.9,20.9h519.5c11.5,0,20.9-9.4,20.9-20.9V30.9c0-11.5-9.4-20.9-20.9-20.9H30.9z"/>
</g>
</svg>
