<?xml version="1.0" encoding="utf-8"?>
<!-- Generator: Adobe Illustrator 19.0.0, SVG Export Plug-In . SVG Version: 6.00 Build 0)  -->
<svg version="1.1" id="Layer_1" xmlns="http://www.w3.org/2000/svg" xmlns:xlink="http://www.w3.org/1999/xlink" x="0px" y="0px"
	 viewBox="-56 347.6 99.4 99.4" style="enable-background:new -56 347.6 99.4 99.4;" xml:space="preserve">
<style type="text/css">
	.st0{fill:#3C404B;}
	.st1{fill:none;}
	.st2{fill:#FFFFFF;}
</style>
<path class="st0" d="M12.3,447h-37.1C-42,447-56,433-56,415.9v-37.1c0-17.1,14-31.1,31.2-31.1h37.1c17.1,0,31.2,14,31.2,31.1v37.1
	C43.4,433,29.4,447,12.3,447z"/>
<g>
	<polygon class="st1" points="10.7,403.9 10.7,400.2 10.7,396.4 10.7,392.7 10.7,388.9 10.7,385.2 10.7,381.4 7,381.4 3.2,381.4 
		-0.5,381.4 -4.3,381.4 -4.3,385.2 -4.3,388.9 -4.3,392.7 -4.3,396.4 -4.3,400.2 -4.3,403.9 -4.3,407.7 -4.3,411.4 -0.5,411.4 
		3.2,411.4 7,411.4 10.7,411.4 10.7,407.7 	"/>
	<polygon class="st2" points="-26.8,373.9 -26.8,377.7 -26.8,381.4 -26.8,385.2 -26.8,388.9 -26.8,392.7 -26.8,396.4 -26.8,400.2 
		-26.8,403.9 -26.8,407.7 -26.8,411.4 -23,411.4 -19.3,411.4 -19.3,407.7 -19.3,403.9 -19.3,400.2 -19.3,396.4 -19.3,392.7 
		-19.3,388.9 -19.3,385.2 -19.3,381.4 -19.3,377.7 -19.3,373.9 -23,373.9 	"/>
	<polygon class="st2" points="-34.3,411.4 -34.3,415.2 -34.3,418.9 -30.5,418.9 -26.8,418.9 -26.8,415.2 -26.8,411.4 -30.5,411.4 	
		"/>
	<polygon class="st2" points="14.5,381.4 10.7,381.4 10.7,385.2 10.7,388.9 10.7,392.7 10.7,396.4 10.7,400.2 10.7,403.9 
		10.7,407.7 10.7,411.4 14.5,411.4 18.2,411.4 18.2,407.7 18.2,403.9 18.2,400.2 18.2,396.4 18.2,392.7 18.2,388.9 18.2,385.2 
		18.2,381.4 	"/>
	<polygon class="st2" points="3.2,381.4 7,381.4 10.7,381.4 10.7,377.7 10.7,373.9 7,373.9 3.2,373.9 -0.5,373.9 -4.3,373.9 
		-4.3,377.7 -4.3,381.4 -0.5,381.4 	"/>
	<polygon class="st2" points="-4.3,403.9 -4.3,400.2 -4.3,396.4 -4.3,392.7 -4.3,388.9 -4.3,385.2 -4.3,381.4 -8,381.4 -11.8,381.4 
		-11.8,385.2 -11.8,388.9 -11.8,392.7 -11.8,396.4 -11.8,400.2 -11.8,403.9 -11.8,407.7 -11.8,411.4 -8,411.4 -4.3,411.4 
		-4.3,407.7 	"/>
	<polygon class="st2" points="3.2,411.4 -0.5,411.4 -4.3,411.4 -4.3,415.2 -4.3,418.9 -0.5,418.9 3.2,418.9 7,418.9 10.7,418.9 
		10.7,415.2 10.7,411.4 7,411.4 	"/>
</g>
</svg>
